<svg width="256" height="256" viewBox="0 0 256 256" fill="none" xmlns="http://www.w3.org/2000/svg">
  <defs>
    <linearGradient id="bg" x1="24" y1="24" x2="232" y2="232" gradientUnits="userSpaceOnUse">
      <stop stop-color="#0B1220"/>
      <stop offset="1" stop-color="#111827"/>
    </linearGradient>
    <linearGradient id="accent" x1="60" y1="56" x2="208" y2="200" gradientUnits="userSpaceOnUse">
      <stop stop-color="#60A5FA"/>
      <stop offset="1" stop-color="#A78BFA"/>
    </linearGradient>
  </defs>

  <rect x="20" y="20" width="216" height="216" rx="44" fill="url(#bg)"/>
  <rect x="20.75" y="20.75" width="214.5" height="214.5" rx="43.25" stroke="#94A3B8" stroke-opacity="0.12" stroke-width="1.5"/>

  <!-- protocol rails -->
  <g stroke="url(#accent)" stroke-width="4" stroke-linecap="round" stroke-linejoin="round">
    <path d="M78 90C66 90 58 98 58 110V146C58 158 66 166 78 166"/>
    <path d="M178 90C190 90 198 98 198 110V146C198 158 190 166 178 166"/>
    <path d="M92 110H164"/>
    <path d="M92 146H164"/>
    <path d="M92 110C100 126 100 130 92 146"/>
    <path d="M164 110C156 126 156 130 164 146"/>
  </g>

  <!-- nodes -->
  <g fill="url(#accent)" opacity="0.95">
    <circle cx="92" cy="110" r="6"/>
    <circle cx="164" cy="110" r="6"/>
    <circle cx="92" cy="146" r="6"/>
    <circle cx="164" cy="146" r="6"/>
    <circle cx="128" cy="128" r="7"/>
  </g>

  <!-- subtle scanline -->
  <path d="M48 128H208" stroke="#E2E8F0" stroke-opacity="0.08" stroke-width="2"/>
</svg>

