<svg width="256" height="256" viewBox="0 0 256 256" fill="none" xmlns="http://www.w3.org/2000/svg">
  <defs>
    <linearGradient id="bg" x1="24" y1="24" x2="232" y2="232" gradientUnits="userSpaceOnUse">
      <stop stop-color="#0B1220"/>
      <stop offset="1" stop-color="#111827"/>
    </linearGradient>
    <linearGradient id="accent" x1="64" y1="56" x2="200" y2="208" gradientUnits="userSpaceOnUse">
      <stop stop-color="#60A5FA"/>
      <stop offset="1" stop-color="#A78BFA"/>
    </linearGradient>
  </defs>

  <rect x="20" y="20" width="216" height="216" rx="44" fill="url(#bg)"/>
  <rect x="20.75" y="20.75" width="214.5" height="214.5" rx="43.25" stroke="#94A3B8" stroke-opacity="0.12" stroke-width="1.5"/>

  <!-- subtle grid -->
  <g stroke="#E2E8F0" stroke-opacity="0.06" stroke-width="1">
    <path d="M56 44V212"/>
    <path d="M92 44V212"/>
    <path d="M128 44V212"/>
    <path d="M164 44V212"/>
    <path d="M200 44V212"/>
    <path d="M44 56H212"/>
    <path d="M44 92H212"/>
    <path d="M44 128H212"/>
    <path d="M44 164H212"/>
    <path d="M44 200H212"/>
  </g>

  <!-- sandbox cube -->
  <g stroke="url(#accent)" stroke-width="4" stroke-linecap="round" stroke-linejoin="round">
    <path d="M92 112L128 92L164 112L128 132L92 112Z"/>
    <path d="M92 112V152L128 172V132"/>
    <path d="M164 112V152L128 172"/>
  </g>

  <!-- orbiting nodes -->
  <g fill="url(#accent)" opacity="0.95">
    <circle cx="74" cy="86" r="6"/>
    <circle cx="190" cy="92" r="5"/>
    <circle cx="182" cy="176" r="6"/>
  </g>
  <g stroke="url(#accent)" stroke-opacity="0.55" stroke-width="2">
    <path d="M76 86C104 62 158 60 190 92"/>
    <path d="M190 92C216 122 206 158 182 176"/>
    <path d="M182 176C136 214 86 194 74 86"/>
  </g>
</svg>

