<svg width="256" height="256" viewBox="0 0 256 256" fill="none" xmlns="http://www.w3.org/2000/svg">
  <defs>
    <linearGradient id="bg" x1="24" y1="24" x2="232" y2="232" gradientUnits="userSpaceOnUse">
      <stop stop-color="#0B1220"/>
      <stop offset="1" stop-color="#0F172A"/>
    </linearGradient>
    <linearGradient id="accent" x1="72" y1="64" x2="188" y2="200" gradientUnits="userSpaceOnUse">
      <stop stop-color="#60A5FA"/>
      <stop offset="1" stop-color="#A78BFA"/>
    </linearGradient>
  </defs>

  <rect x="20" y="20" width="216" height="216" rx="44" fill="url(#bg)"/>
  <rect x="20.75" y="20.75" width="214.5" height="214.5" rx="43.25" stroke="#94A3B8" stroke-opacity="0.12" stroke-width="1.5"/>

  <!-- shield -->
  <path
    d="M128 62C149 76 170 82 192 86V140C192 176 164 198 128 210C92 198 64 176 64 140V86C86 82 107 76 128 62Z"
    stroke="url(#accent)"
    stroke-width="4"
    stroke-linejoin="round"
  />

  <!-- lock -->
  <g stroke="url(#accent)" stroke-width="4" stroke-linecap="round" stroke-linejoin="round">
    <path d="M108 138V124C108 112 116 104 128 104C140 104 148 112 148 124V138"/>
    <path d="M104 138H152V176H104V138Z"/>
    <path d="M128 152V162"/>
  </g>

  <!-- highlight dots -->
  <g fill="#E2E8F0" opacity="0.10">
    <circle cx="84" cy="84" r="3"/>
    <circle cx="176" cy="92" r="2.5"/>
    <circle cx="188" cy="188" r="3"/>
  </g>
</svg>

