<svg xmlns="http://www.w3.org/2000/svg" width="1600" height="900" viewBox="0 0 1600 900" role="img" aria-labelledby="title desc">
  <title id="title">Staged package release approval</title>
  <desc id="desc">An automated build creates a sealed package candidate that waits behind an approval gate before reaching the public registry.</desc>
  <defs>
    <linearGradient id="bg" x1="120" y1="40" x2="1500" y2="860" gradientUnits="userSpaceOnUse">
      <stop stop-color="#0f172a"/><stop offset=".55" stop-color="#111827"/><stop offset="1" stop-color="#1e1b32"/>
    </linearGradient>
    <linearGradient id="accent" x1="0" y1="0" x2="1" y2="1">
      <stop stop-color="#38bdf8"/><stop offset=".55" stop-color="#6366f1"/><stop offset="1" stop-color="#a78bfa"/>
    </linearGradient>
    <radialGradient id="glow"><stop stop-color="#6366f1" stop-opacity=".3"/><stop offset="1" stop-color="#6366f1" stop-opacity="0"/></radialGradient>
    <filter id="blur"><feGaussianBlur stdDeviation="52"/></filter>
    <filter id="shadow" x="-30%" y="-30%" width="160%" height="160%"><feDropShadow dx="0" dy="20" stdDeviation="24" flood-color="#020617" flood-opacity=".65"/></filter>
  </defs>
  <rect width="1600" height="900" fill="url(#bg)"/>
  <path d="M0 150H1600M0 300H1600M0 450H1600M0 600H1600M0 750H1600M200 0V900M400 0V900M600 0V900M800 0V900M1000 0V900M1200 0V900M1400 0V900" stroke="#94a3b8" stroke-opacity=".045"/>
  <ellipse cx="805" cy="450" rx="570" ry="330" fill="url(#glow)" filter="url(#blur)"/>
  <g fill="none" stroke-linecap="round">
    <path d="M242 450H548" stroke="#60a5fa" stroke-opacity=".62" stroke-width="6"/>
    <path d="M924 450H1154" stroke="#a78bfa" stroke-opacity=".48" stroke-width="6" stroke-dasharray="14 18"/>
  </g>
  <g filter="url(#shadow)">
    <rect x="112" y="316" width="250" height="268" rx="42" fill="#162033" stroke="#38bdf8" stroke-opacity=".72" stroke-width="3"/>
    <path d="M171 385h132v132H171z" fill="#0f172a" stroke="#7dd3fc" stroke-width="3"/>
    <path d="M171 385l66 39 66-39M237 424v93" fill="none" stroke="#bae6fd" stroke-width="4" stroke-linejoin="round"/>
    <circle cx="237" cy="549" r="10" fill="#38bdf8"/>
    <rect x="548" y="274" width="376" height="352" rx="58" fill="#162033" stroke="url(#accent)" stroke-width="4"/>
    <rect x="1154" y="316" width="332" height="268" rx="42" fill="#162033" stroke="#8b5cf6" stroke-opacity=".6" stroke-width="3"/>
  </g>
  <g fill="none" stroke-linecap="round" stroke-linejoin="round">
    <path d="M649 437v-62c0-49 39-88 87-88s87 39 87 88v62" stroke="#c7d2fe" stroke-width="9"/>
    <rect x="622" y="417" width="228" height="155" rx="34" stroke="#e0e7ff" stroke-width="6"/>
    <circle cx="736" cy="484" r="20" stroke="#a5b4fc" stroke-width="6"/>
    <path d="M736 504v31" stroke="#a5b4fc" stroke-width="7"/>
    <path d="M1218 390h204M1218 446h146M1218 502h174" stroke="#cbd5e1" stroke-width="5"/>
    <path d="M1296 628l31 31 68-78" stroke="url(#accent)" stroke-width="12"/>
    <circle cx="1344" cy="621" r="90" stroke="#8b5cf6" stroke-opacity=".45" stroke-width="4"/>
  </g>
  <g fill="#e2e8f0"><circle cx="548" cy="450" r="10"/><circle cx="924" cy="450" r="10"/><circle cx="1154" cy="450" r="10"/></g>
  <g fill="#94a3b8"><circle cx="83" cy="102" r="4"/><circle cx="1505" cy="104" r="4"/><circle cx="1510" cy="795" r="4"/><circle cx="88" cy="796" r="4"/></g>
</svg>
