<svg xmlns="http://www.w3.org/2000/svg" viewBox="0 0 1600 900" role="img" aria-labelledby="title desc">
  <title id="title">Portable managed agent session</title>
  <desc id="desc">A central durable session connects to interchangeable sandbox boundaries, a compacted state core, and three coordinated subagents.</desc>
  <defs>
    <linearGradient id="bg" x1="0" y1="0" x2="1" y2="1">
      <stop stop-color="#08111f"/>
      <stop offset="1" stop-color="#17172a"/>
    </linearGradient>
    <linearGradient id="edge" x1="0" y1="0" x2="1" y2="1">
      <stop stop-color="#38bdf8"/>
      <stop offset="1" stop-color="#8b5cf6"/>
    </linearGradient>
    <radialGradient id="glow">
      <stop stop-color="#6366f1" stop-opacity=".3"/>
      <stop offset="1" stop-color="#6366f1" stop-opacity="0"/>
    </radialGradient>
    <filter id="blur"><feGaussianBlur stdDeviation="48"/></filter>
  </defs>
  <rect width="1600" height="900" fill="url(#bg)"/>
  <g stroke="#334155" stroke-width="1" opacity=".18">
    <path d="M0 150h1600M0 300h1600M0 450h1600M0 600h1600M0 750h1600"/>
    <path d="M200 0v900M400 0v900M600 0v900M800 0v900M1000 0v900M1200 0v900M1400 0v900"/>
  </g>
  <ellipse cx="800" cy="450" rx="590" ry="340" fill="url(#glow)" filter="url(#blur)"/>
  <g fill="#0f172a" stroke-width="4">
    <path d="M250 260h270l70 70v300l-70 70H250l-70-70V330z" stroke="#475569"/>
    <path d="M1080 260h270l70 70v300l-70 70h-270l-70-70V330z" stroke="#475569"/>
  </g>
  <g fill="none" stroke-linecap="round" stroke-linejoin="round">
    <path d="M345 350h95M310 410h165M310 470h165M310 530h110" stroke="#64748b" stroke-width="12"/>
    <path d="M1160 365l55-38 55 38v70l-55 38-55-38zM1150 540h130" stroke="#a78bfa" stroke-width="10"/>
    <path d="M590 450h125M885 450h125" stroke="url(#edge)" stroke-width="8"/>
    <path d="M800 335V220M800 565v115" stroke="#475569" stroke-width="7"/>
    <path d="M800 220l-190-80M800 220l190-80M800 680l-190 80M800 680l190 80" stroke="#334155" stroke-width="5"/>
  </g>
  <g fill="#111827" stroke="url(#edge)" stroke-width="6">
    <rect x="650" y="285" width="300" height="330" rx="72"/>
    <circle cx="610" cy="140" r="43"/>
    <circle cx="990" cy="140" r="43"/>
    <circle cx="610" cy="760" r="43"/>
    <circle cx="990" cy="760" r="43"/>
  </g>
  <g fill="none" stroke-linecap="round">
    <path d="M720 395h160M720 455h160M720 515h105" stroke="#94a3b8" stroke-width="12"/>
    <path d="M824 514l27 27 55-62" stroke="#38bdf8" stroke-width="12" stroke-linejoin="round"/>
    <circle cx="800" cy="450" r="185" stroke="#60a5fa" stroke-opacity=".24" stroke-width="3" stroke-dasharray="12 18"/>
  </g>
  <g fill="#c4b5fd">
    <circle cx="610" cy="140" r="11"/><circle cx="990" cy="140" r="11"/>
    <circle cx="610" cy="760" r="11"/><circle cx="990" cy="760" r="11"/>
  </g>
  <g fill="#38bdf8">
    <circle cx="590" cy="450" r="9"/><circle cx="1010" cy="450" r="9"/>
  </g>
</svg>
