<svg width="1600" height="900" viewBox="0 0 1600 900" fill="none" xmlns="http://www.w3.org/2000/svg" role="img" aria-labelledby="title desc">
  <title id="title">Trustworthy background-agent handoff</title>
  <desc id="desc">A clean technical composition of a coordinator, three isolated workers, and a verified handoff channel.</desc>
  <defs>
    <linearGradient id="panel" x1="110" y1="80" x2="1490" y2="820" gradientUnits="userSpaceOnUse"><stop stop-color="#0f172a"/><stop offset=".58" stop-color="#111827"/><stop offset="1" stop-color="#18142b"/></linearGradient>
    <linearGradient id="signal" x1="390" y1="240" x2="1250" y2="690" gradientUnits="userSpaceOnUse"><stop stop-color="#38bdf8"/><stop offset=".52" stop-color="#6366f1"/><stop offset="1" stop-color="#a78bfa"/></linearGradient>
    <radialGradient id="wash" cx="0" cy="0" r="1" gradientUnits="userSpaceOnUse" gradientTransform="translate(820 430) rotate(90) scale(390 680)"><stop stop-color="#6366f1" stop-opacity=".17"/><stop offset="1" stop-color="#6366f1" stop-opacity="0"/></radialGradient>
    <filter id="shadow" x="28" y="4" width="1544" height="892" filterUnits="userSpaceOnUse"><feDropShadow dx="0" dy="34" stdDeviation="52" flood-color="#020617" flood-opacity=".74"/></filter>
  </defs>
  <rect width="1600" height="900" fill="#07111d"/>
  <rect x="108" y="84" width="1384" height="732" rx="32" fill="url(#panel)" stroke="#263244" stroke-width="2" filter="url(#shadow)"/>
  <rect x="108" y="84" width="1384" height="732" rx="32" fill="url(#wash)"/>
  <g opacity=".13" stroke="#64748b" stroke-width="2"><path d="M180 225H1420M180 450H1420M180 675H1420"/><path d="M390 150V750M800 150V750M1210 150V750"/></g>
  <path d="M555 450H712M888 450H1045M800 362V270M800 538V652" stroke="url(#signal)" stroke-width="8" stroke-linecap="round"/>
  <path d="M688 430L712 450L688 470M1021 430L1045 450L1021 470M780 294L800 270L820 294M780 628L800 652L820 628" stroke="#a5b4fc" stroke-width="7" stroke-linecap="round" stroke-linejoin="round"/>
  <rect x="676" y="326" width="248" height="248" rx="48" fill="#0b1524" stroke="url(#signal)" stroke-width="6"/>
  <circle cx="800" cy="420" r="42" fill="#111c30" stroke="#7dd3fc" stroke-width="5"/>
  <path d="M730 504C746 462 774 448 800 448C826 448 854 462 870 504" stroke="#a5b4fc" stroke-width="10" stroke-linecap="round"/>
  <g>
    <rect x="299" y="345" width="256" height="210" rx="34" fill="#0b1524" stroke="#38bdf8" stroke-width="5"/>
    <rect x="1045" y="345" width="256" height="210" rx="34" fill="#11152a" stroke="#a78bfa" stroke-width="5"/>
    <rect x="672" y="652" width="256" height="112" rx="34" fill="#101827" stroke="#818cf8" stroke-width="5"/>
  </g>
  <g fill="#64748b"><circle cx="342" cy="390" r="10"/><circle cx="376" cy="390" r="10"/><circle cx="410" cy="390" r="10"/><circle cx="1088" cy="390" r="10"/><circle cx="1122" cy="390" r="10"/><circle cx="1156" cy="390" r="10"/></g>
  <path d="M355 458H499M355 497H468M1101 458H1245M1101 497H1214" stroke="#64748b" stroke-width="10" stroke-linecap="round"/>
  <path d="M734 707L780 735L866 683" stroke="url(#signal)" stroke-width="13" stroke-linecap="round" stroke-linejoin="round"/>
  <circle cx="555" cy="450" r="13" fill="#38bdf8"/><circle cx="1045" cy="450" r="13" fill="#a78bfa"/><circle cx="800" cy="652" r="13" fill="#818cf8"/><circle cx="800" cy="270" r="13" fill="#7dd3fc"/>
  <path d="M748 214H852" stroke="#7dd3fc" stroke-width="10" stroke-linecap="round"/>
</svg>
